<?xml version="1.0" encoding="utf-8"?>
<!-- Generator: Adobe Illustrator 21.0.0, SVG Export Plug-In . SVG Version: 6.00 Build 0)  -->
<svg version="1.1" id="Layer_1" xmlns="http://www.w3.org/2000/svg" xmlns:xlink="http://www.w3.org/1999/xlink" x="0px" y="0px"
	 viewBox="0 0 36 36" style="enable-background:new 0 0 36 36;" xml:space="preserve">
<style type="text/css">
	.st0{fill:#EE2624;}
</style>
<g>
	<g>
		<g>
			<path class="st0" d="M18,1.5c7.4,0,13.5,5.6,13.5,13.5c0,5.6-4.2,11.9-12.5,19.1L18,35l-1-0.9C8.7,26.9,4.5,20.6,4.5,15
				C4.5,7.1,10.6,1.5,18,1.5z M18,4.5C12.2,4.5,7.5,8.8,7.5,15c0,4.3,3.5,9.6,10.5,16c7-6.3,10.5-11.7,10.5-16
				C28.5,8.8,23.8,4.5,18,4.5z M18,7.5c4.1,0,7.5,3.4,7.5,7.5s-3.4,7.5-7.5,7.5s-7.5-3.4-7.5-7.5S13.9,7.5,18,7.5z M18,10.5
				c-2.5,0-4.5,2-4.5,4.5s2,4.5,4.5,4.5s4.5-2,4.5-4.5S20.5,10.5,18,10.5z"/>
		</g>
	</g>
</g>
</svg>
