<svg xmlns="http://www.w3.org/2000/svg" width="20" height="20" viewBox="0 0 20 20">
    <g fill="none" fill-rule="evenodd">
        <g fill="#CFD2D4" fill-rule="nonzero">
            <g>
                <g>
                    <path d="M10 1.667c3.632 0 6.667 2.8 6.667 6.718 0 2.767-2.083 5.915-6.18 9.52l-.487.428-.487-.428c-4.097-3.605-6.18-6.753-6.18-9.52 0-3.919 3.035-6.718 6.667-6.718zm0 1.493c-2.841 0-5.185 2.162-5.185 5.225 0 2.127 1.708 4.802 5.185 7.96 3.477-3.158 5.185-5.833 5.185-7.96 0-3.063-2.344-5.225-5.185-5.225zm0 1.493c2.045 0 3.704 1.67 3.704 3.732 0 2.061-1.659 3.732-3.704 3.732s-3.704-1.67-3.704-3.732c0-2.061 1.659-3.732 3.704-3.732zm0 1.492c-1.227 0-2.222 1.003-2.222 2.24 0 1.237.995 2.24 2.222 2.24 1.227 0 2.222-1.003 2.222-2.24 0-1.237-.995-2.24-2.222-2.24z" transform="translate(-1074 -2673) translate(0 2521) translate(1074 152)"/>
                </g>
            </g>
        </g>
    </g>
</svg>
