<svg xmlns="http://www.w3.org/2000/svg" width="20" height="20" viewBox="0 0 20 20">
    <g fill="none" fill-rule="evenodd">
        <g fill="#CFD2D4" fill-rule="nonzero">
            <g>
                <g>
                    <path d="M6.854 2.275c.463.456 1.2 1.404 2.295 2.938.489.541.334 1.154-.098 1.736-.102.138-.22.274-.363.424-.051.054-.094.098-.16.163l-.712.714c-.084.083.488 1.225 1.597 2.336 1.109 1.11 2.25 1.681 2.335 1.597l.638-.639c.352-.352.538-.522.794-.69.532-.348 1.112-.443 1.602-.006 1.597 1.143 2.502 1.845 2.944 2.305.865.898.751 2.28.005 3.068-.258.273-.586.601-.974.975-2.342 2.344-7.287.917-11.077-2.876C1.89 10.526.464 5.58 2.802 3.241c.42-.426.558-.564.967-.967.761-.75 2.207-.868 3.085 0zM4.938 3.46c-.403.397-.536.53-.954.954-1.503 1.505-.352 5.497 2.874 8.727 3.226 3.229 7.217 4.38 8.733 2.864.127-.122.246-.238.357-.348l.31-.31.264-.273c.173-.183.203-.56.005-.766-.331-.344-1.142-.976-2.542-1.981-.102.082-.227.2-.42.395l-.64.639c-1.085 1.086-2.934.16-4.69-1.598-1.758-1.76-2.682-3.607-1.596-4.693l.638-.639c.102-.102.149-.15.205-.208.076-.08.14-.151.19-.214C6.7 4.657 6.04 3.812 5.683 3.46c-.184-.18-.595-.148-.746.001zm6.445-1.736c3.603.437 6.46 3.294 6.896 6.897l-1.646.274c-.318-2.902-2.622-5.207-5.524-5.524l.274-1.647zm-.549 3.294c2.202.197 3.955 1.95 4.152 4.151l-1.652.276c-.07-1.501-1.274-2.705-2.775-2.775l.275-1.652z" transform="translate(-1074 -2705) translate(0 2521) translate(1074 184)"/>
                </g>
            </g>
        </g>
    </g>
</svg>
