<?xml version="1.0" encoding="utf-8"?>
<!-- Generator: Adobe Illustrator 21.0.0, SVG Export Plug-In . SVG Version: 6.00 Build 0)  -->
<svg version="1.1" id="Capa_1" xmlns="http://www.w3.org/2000/svg" xmlns:xlink="http://www.w3.org/1999/xlink" x="0px" y="0px"
	 viewBox="0 0 98.8 98.8" style="enable-background:new 0 0 98.8 98.8;" xml:space="preserve">
<style type="text/css">
	.st0{fill:#F47C7B;}
</style>
<g>
	<g>
		<path class="st0" d="M96.8,41.6C91.5,22.8,78.6,9.2,66,9.2c-1,0-2,0.1-3,0.3c-0.6,0.1-1,0.4-1.3,0.9c-0.3,0.5-0.4,1.1-0.2,1.6
			l2.6,9.3c0.2,0.9,1.1,1.5,2,1.5l0.2,0c4.7,0,13.2,7,17.5,22.5c0.2,0.6,0.3,1.2,0.5,1.9c-4.9-2.4-10.7-3-16-1.5
			C56.4,49,49.4,61.4,52.7,73.3c2.7,9.6,11.6,16.4,21.6,16.4c2,0,4.1-0.3,6-0.8c7.8-2.2,13.7-8.7,16.6-18.3
			C99.5,61.8,99.5,51.2,96.8,41.6z"/>
		<path class="st0" d="M14.1,9.2c-1,0-2,0.1-3,0.3c-0.6,0.1-1,0.4-1.3,0.9c-0.3,0.5-0.4,1.1-0.2,1.6l2.6,9.3c0.2,0.9,1.1,1.5,2,1.5
			l0.2,0c4.7,0,13.2,7,17.5,22.5c0.2,0.6,0.3,1.3,0.5,1.9c-4.9-2.4-10.7-3-16-1.5C4.5,49-2.5,61.4,0.8,73.3
			c2.7,9.6,11.6,16.4,21.6,16.4c2,0,4.1-0.3,6-0.8c7.8-2.2,13.7-8.7,16.6-18.3c2.6-8.7,2.5-19.2-0.2-28.9
			C39.6,22.8,26.7,9.2,14.1,9.2z"/>
	</g>
</g>
</svg>
